<svg xmlns="http://www.w3.org/2000/svg" width="1000" height="380" viewBox="0 0 1000 380" role="img" aria-label="Three modes: from-scratch, refactor, and manage.">
<defs>
<radialGradient id="glowm" cx="50%" cy="42%" r="66%"><stop offset="0%" stop-color="#d8642f" stop-opacity="0.30"></stop><stop offset="46%" stop-color="#d8642f" stop-opacity="0.10"></stop><stop offset="100%" stop-color="#d8642f" stop-opacity="0"></stop></radialGradient>
<linearGradient id="panelm" x1="0" y1="0" x2="0" y2="1"><stop offset="0%" stop-color="#17131c"></stop><stop offset="100%" stop-color="#100d13"></stop></linearGradient>
</defs>
<rect width="1000" height="380" fill="#0f0d12"></rect>
<g><circle cx="650" cy="344" r="1.0" fill="#ff8a3d" fill-opacity="0.16"></circle><circle cx="228" cy="289" r="0.8" fill="#ff8a3d" fill-opacity="0.25"></circle><circle cx="802" cy="129" r="1.5" fill="#ff8a3d" fill-opacity="0.46"></circle><circle cx="953" cy="197" r="1.0" fill="#ff8a3d" fill-opacity="0.30"></circle><circle cx="445" cy="222" r="0.9" fill="#ff8a3d" fill-opacity="0.44"></circle><circle cx="118" cy="297" r="0.6" fill="#ff8a3d" fill-opacity="0.25"></circle><circle cx="441" cy="206" r="1.5" fill="#ff8a3d" fill-opacity="0.38"></circle><circle cx="735" cy="141" r="1.8" fill="#ff8a3d" fill-opacity="0.14"></circle><circle cx="62" cy="155" r="1.9" fill="#ff8a3d" fill-opacity="0.15"></circle><circle cx="781" cy="242" r="1.9" fill="#ff8a3d" fill-opacity="0.27"></circle><circle cx="766" cy="300" r="1.5" fill="#ff8a3d" fill-opacity="0.39"></circle><circle cx="303" cy="337" r="1.7" fill="#ff8a3d" fill-opacity="0.45"></circle><circle cx="639" cy="180" r="1.7" fill="#ff8a3d" fill-opacity="0.23"></circle><circle cx="205" cy="191" r="0.9" fill="#ff8a3d" fill-opacity="0.27"></circle><circle cx="508" cy="336" r="1.2" fill="#ff8a3d" fill-opacity="0.19"></circle><circle cx="683" cy="273" r="2.0" fill="#ff8a3d" fill-opacity="0.13"></circle><circle cx="718" cy="68" r="1.1" fill="#ff8a3d" fill-opacity="0.45"></circle><circle cx="341" cy="25" r="1.2" fill="#ff8a3d" fill-opacity="0.45"></circle><circle cx="578" cy="14" r="0.6" fill="#ff8a3d" fill-opacity="0.24"></circle><circle cx="971" cy="184" r="1.6" fill="#ff8a3d" fill-opacity="0.39"></circle><circle cx="471" cy="38" r="1.4" fill="#ff8a3d" fill-opacity="0.30"></circle><circle cx="992" cy="36" r="1.9" fill="#ff8a3d" fill-opacity="0.43"></circle><circle cx="632" cy="33" r="1.9" fill="#ff8a3d" fill-opacity="0.36"></circle><circle cx="564" cy="248" r="1.2" fill="#ff8a3d" fill-opacity="0.40"></circle><circle cx="591" cy="213" r="2.0" fill="#ff8a3d" fill-opacity="0.15"></circle><circle cx="367" cy="247" r="1.4" fill="#ff8a3d" fill-opacity="0.23"></circle><circle cx="287" cy="149" r="1.7" fill="#ff8a3d" fill-opacity="0.22"></circle><circle cx="42" cy="39" r="2.0" fill="#ff8a3d" fill-opacity="0.49"></circle><circle cx="843" cy="322" r="1.2" fill="#ff8a3d" fill-opacity="0.26"></circle><circle cx="306" cy="373" r="0.6" fill="#ff8a3d" fill-opacity="0.43"></circle><circle cx="12" cy="146" r="1.5" fill="#ff8a3d" fill-opacity="0.49"></circle><circle cx="726" cy="128" r="0.7" fill="#ff8a3d" fill-opacity="0.32"></circle><circle cx="287" cy="34" r="0.7" fill="#ff8a3d" fill-opacity="0.48"></circle><circle cx="166" cy="27" r="1.5" fill="#ff8a3d" fill-opacity="0.44"></circle><circle cx="683" cy="301" r="1.1" fill="#ff8a3d" fill-opacity="0.28"></circle><circle cx="899" cy="146" r="1.5" fill="#ff8a3d" fill-opacity="0.26"></circle><circle cx="173" cy="317" r="1.3" fill="#ff8a3d" fill-opacity="0.19"></circle><circle cx="381" cy="332" r="1.8" fill="#ff8a3d" fill-opacity="0.40"></circle><circle cx="807" cy="201" r="0.8" fill="#ff8a3d" fill-opacity="0.41"></circle><circle cx="698" cy="128" r="0.6" fill="#ff8a3d" fill-opacity="0.42"></circle><circle cx="486" cy="97" r="0.7" fill="#ff8a3d" fill-opacity="0.15"></circle><circle cx="677" cy="73" r="1.3" fill="#ff8a3d" fill-opacity="0.43"></circle><circle cx="408" cy="95" r="2.0" fill="#ff8a3d" fill-opacity="0.19"></circle><circle cx="665" cy="227" r="2.0" fill="#ff8a3d" fill-opacity="0.20"></circle><circle cx="178" cy="16" r="0.9" fill="#ff8a3d" fill-opacity="0.16"></circle><circle cx="970" cy="89" r="1.7" fill="#ff8a3d" fill-opacity="0.17"></circle><circle cx="585" cy="217" r="1.9" fill="#ff8a3d" fill-opacity="0.40"></circle><circle cx="974" cy="282" r="0.6" fill="#ff8a3d" fill-opacity="0.27"></circle><circle cx="51" cy="365" r="0.8" fill="#ff8a3d" fill-opacity="0.22"></circle><circle cx="913" cy="319" r="1.7" fill="#ff8a3d" fill-opacity="0.24"></circle><circle cx="734" cy="366" r="1.4" fill="#ff8a3d" fill-opacity="0.24"></circle><circle cx="317" cy="35" r="2.0" fill="#ff8a3d" fill-opacity="0.21"></circle><circle cx="315" cy="27" r="0.7" fill="#ff8a3d" fill-opacity="0.38"></circle><circle cx="123" cy="139" r="1.3" fill="#ff8a3d" fill-opacity="0.32"></circle><circle cx="434" cy="114" r="1.5" fill="#ff8a3d" fill-opacity="0.41"></circle><circle cx="457" cy="354" r="1.5" fill="#ff8a3d" fill-opacity="0.28"></circle><circle cx="809" cy="237" r="1.3" fill="#ff8a3d" fill-opacity="0.39"></circle><circle cx="70" cy="94" r="2.1" fill="#ff8a3d" fill-opacity="0.28"></circle><circle cx="7" cy="34" r="0.6" fill="#ff8a3d" fill-opacity="0.20"></circle><circle cx="457" cy="151" r="0.9" fill="#ff8a3d" fill-opacity="0.32"></circle><circle cx="892" cy="229" r="1.5" fill="#ff8a3d" fill-opacity="0.50"></circle><circle cx="630" cy="80" r="2.0" fill="#ff8a3d" fill-opacity="0.43"></circle><circle cx="736" cy="136" r="1.2" fill="#ff8a3d" fill-opacity="0.36"></circle><circle cx="565" cy="12" r="0.8" fill="#ff8a3d" fill-opacity="0.52"></circle><circle cx="995" cy="365" r="0.6" fill="#ff8a3d" fill-opacity="0.41"></circle><circle cx="310" cy="65" r="1.6" fill="#ff8a3d" fill-opacity="0.38"></circle><circle cx="757" cy="77" r="1.2" fill="#ff8a3d" fill-opacity="0.21"></circle><circle cx="767" cy="3" r="0.5" fill="#ff8a3d" fill-opacity="0.43"></circle><circle cx="847" cy="190" r="1.5" fill="#ff8a3d" fill-opacity="0.26"></circle><circle cx="133" cy="296" r="2.0" fill="#ff8a3d" fill-opacity="0.25"></circle><circle cx="613" cy="7" r="1.3" fill="#ff8a3d" fill-opacity="0.34"></circle><circle cx="14" cy="6" r="0.5" fill="#ff8a3d" fill-opacity="0.26"></circle><circle cx="362" cy="164" r="1.2" fill="#ff8a3d" fill-opacity="0.49"></circle></g>
<rect width="1000" height="380" fill="url(#glowm)"></rect>
<text x="500" y="58" text-anchor="middle" font-family="Georgia, &#39;Times New Roman&#39;, serif" font-size="27" font-weight="700" fill="#f6f2ee">Three modes, one skill</text>
<rect x="30" y="98" width="300" height="238" rx="16" fill="url(#panelm)" stroke="#ff7a2f" stroke-opacity="0.3" stroke-width="1.4"></rect><rect x="30" y="98" width="300" height="3" rx="1.5" fill="#ff7a2f" fill-opacity="0.6"></rect><text x="56" y="144" font-size="21" font-weight="700" fill="#f6f2ee" font-family="Georgia, &#39;Times New Roman&#39;, serif">From-scratch</text><text x="56" y="168" font-size="11.5" fill="#ff8a4a" font-family="&#39;SFMono-Regular&#39;, ui-monospace, &#39;DejaVu Sans Mono&#39;, monospace" letter-spacing="0.5">DESIGN A NEW PROMPT</text><circle cx="56" cy="188" r="2" fill="#ff7a2f"></circle><text x="68" y="192" font-size="13.5" fill="#cdbfb0" font-family="&#39;Helvetica Neue&#39;, Arial, sans-serif">Task → shape + tier</text><circle cx="56" cy="216" r="2" fill="#ff7a2f"></circle><text x="68" y="220" font-size="13.5" fill="#cdbfb0" font-family="&#39;Helvetica Neue&#39;, Arial, sans-serif">Six-phase pipeline</text><circle cx="56" cy="244" r="2" fill="#ff7a2f"></circle><text x="68" y="248" font-size="13.5" fill="#cdbfb0" font-family="&#39;Helvetica Neue&#39;, Arial, sans-serif">Ships with a verifier</text>
<rect x="350" y="98" width="300" height="238" rx="16" fill="url(#panelm)" stroke="#ff7a2f" stroke-opacity="0.3" stroke-width="1.4"></rect><rect x="350" y="98" width="300" height="3" rx="1.5" fill="#ff7a2f" fill-opacity="0.6"></rect><text x="376" y="144" font-size="21" font-weight="700" fill="#f6f2ee" font-family="Georgia, &#39;Times New Roman&#39;, serif">Refactor</text><text x="376" y="168" font-size="11.5" fill="#ff8a4a" font-family="&#39;SFMono-Regular&#39;, ui-monospace, &#39;DejaVu Sans Mono&#39;, monospace" letter-spacing="0.5">IMPROVE AN EXISTING ONE</text><circle cx="376" cy="188" r="2" fill="#ff7a2f"></circle><text x="388" y="192" font-size="13.5" fill="#cdbfb0" font-family="&#39;Helvetica Neue&#39;, Arial, sans-serif">Modes A / B / C</text><circle cx="376" cy="216" r="2" fill="#ff7a2f"></circle><text x="388" y="220" font-size="13.5" fill="#cdbfb0" font-family="&#39;Helvetica Neue&#39;, Arial, sans-serif">Same audit checklist</text><circle cx="376" cy="244" r="2" fill="#ff7a2f"></circle><text x="388" y="248" font-size="13.5" fill="#cdbfb0" font-family="&#39;Helvetica Neue&#39;, Arial, sans-serif">Keeps what works</text>
<rect x="670" y="98" width="300" height="238" rx="16" fill="url(#panelm)" stroke="#ff7a2f" stroke-opacity="0.3" stroke-width="1.4"></rect><rect x="670" y="98" width="300" height="3" rx="1.5" fill="#ff7a2f" fill-opacity="0.6"></rect><text x="696" y="144" font-size="21" font-weight="700" fill="#f6f2ee" font-family="Georgia, &#39;Times New Roman&#39;, serif">Manage</text><text x="696" y="168" font-size="11.5" fill="#ff8a4a" font-family="&#39;SFMono-Regular&#39;, ui-monospace, &#39;DejaVu Sans Mono&#39;, monospace" letter-spacing="0.5">MAPE-K OVER A LIFETIME</text><circle cx="696" cy="188" r="2" fill="#ff7a2f"></circle><text x="708" y="192" font-size="13.5" fill="#cdbfb0" font-family="&#39;Helvetica Neue&#39;, Arial, sans-serif">Between runs, not live</text><circle cx="696" cy="216" r="2" fill="#ff7a2f"></circle><text x="708" y="220" font-size="13.5" fill="#cdbfb0" font-family="&#39;Helvetica Neue&#39;, Arial, sans-serif">Control vs. data plane</text><circle cx="696" cy="244" r="2" fill="#ff7a2f"></circle><text x="708" y="248" font-size="13.5" fill="#cdbfb0" font-family="&#39;Helvetica Neue&#39;, Arial, sans-serif">Reads run evidence</text>
</svg>